#!OML:ASF Y:\EmotionMaleHayes\Project 1\Capture day 1\Session 1\Male1.ASF
:FULLY-SPECIFIED
:DEGREES
210
root -26.3087 16.4259 -2.30853 -18.9553 -23.4875 10.991
lowerback 13.5808 2.28166 -2.67644
upperback 4.03927 2.9585 8.29406
thorax -3.91871 1.46645 9.96015
lowerneck -17.7576 8.21061 12.0371
upperneck 35.4148 10.884 -7.38747
head 17.0281 5.15912 -3.1614
rclavicle 4.11484e-014 3.49861e-014
rhumerus -37.3094 -22.931 -53.2401
rradius 35.0902
rwrist -7.04862
rhand -7.8611 -34.9665
rfingers 7.12502
rthumb 18.0425 -64.1497
lclavicle 4.11484e-014 3.49861e-014
lhumerus 3.00653 47.2755 10.3496
lradius 55.9663
lwrist 33.0556
lhand -50.8026 -54.8771
lfingers 7.12502
lthumb -23.3592 -26.2746
rfemur 9.33293 0.269192 4.88596
rtibia 34.7004
rfoot -26.3816 -3.9679
rtoes 0.439712
lfemur 4.49205 11.6397 -10.4369
ltibia 81.1122
lfoot 2.63293 0.125035
ltoes 16.031
211
root -26.1958 16.491 -2.33303 -18.3497 -23.1639 9.38703
lowerback 13.3046 1.73341 -1.53126
upperback 4.13118 2.37047 8.59516
thorax -3.52563 1.14855 9.72278
lowerneck -18.0183 8.29385 12.1636
upperneck 35.7156 10.9196 -7.31569
head 17.2649 5.19119 -3.14291
rclavicle 2.38542e-015 -1.27222e-014
rhumerus -40.2087 -25.9161 -50.355
rradius 34.3817
rwrist -7.96303
rhand -8.70552 -33.8424
rfingers 7.12502
rthumb 17.2299 -63.0986
lclavicle 2.38542e-015 -1.27222e-014
lhumerus 3.50267 46.6555 11.6146
lradius 53.0999
lwrist 31.677
lhand -49.9791 -50.2292
lfingers 7.12502
lthumb -22.569 -21.5284
rfemur 9.80046 0.153895 6.2309
rtibia 33.5362
rfoot -25.386 -4.4028
rtoes 3.02205
lfemur 7.01508 11.9653 -9.61224
ltibia 79.7787
lfoot 3.96246 -3.01758
ltoes 15.4796
212
root -26.0711 16.5841 -2.3754 -17.9018 -22.1892 10.3864
lowerback 12.5261 1.40587 -2.7538
upperback 3.86881 1.7719 8.10194
thorax -3.28663 0.857025 10.0014
lowerneck -18.2199 8.37684 12.344
upperneck 35.9222 10.9175 -7.2045
head 17.4344 5.22195 -3.1225
rclavicle 2.59414e-014 1.30403e-013
rhumerus -43.608 -28.7283 -46.8161
rradius 33.8647
rwrist -7.44958
rhand -8.41118 -35.2531
rfingers 7.12502
rthumb 17.5132 -64.4842
lclavicle 2.59414e-014 1.30403e-013
lhumerus 4.06881 45.5969 12.6968
lradius 50.378
lwrist 30.9934
lhand -48.8741 -45.4494
lfingers 7.12502
lthumb -21.5081 -16.6235
rfemur 8.95443 0.0184327 4.504
rtibia 33.0529
rfoot -24.4345 -4.66617
rtoes 5.78323
lfemur 8.42897 12.5569 -12.0908
ltibia 78.2189
lfoot 4.94629 -2.81629
ltoes 12.8344
213
root -25.9304 16.6691 -2.39871 -17.4698 -21.2611 11.1728
lowerback 11.6576 1.01305 -3.87273
upperback 3.72217 1.11649 7.87778
thorax -2.84893 0.521359 10.5212
lowerneck -18.2481 8.57862 12.2006
upperneck 35.7144 11.21 -7.07775
head 17.347 5.33512 -2.96703
rclavicle -5.46658e-015 -2.22639e-014
rhumerus -46.498 -30.5981 -42.9631
rradius 33.1075
rwrist -8.56683
rhand -9.41645 -35.7231
rfingers 7.12502
rthumb 16.5455 -65.0378
lclavicle -5.46658e-015 -2.22639e-014
lhumerus 4.22183 44.6083 13.7958
lradius 48
lwrist 31.0126
lhand -47.731 -39.2799
lfingers 7.12502
lthumb -20.4099 -10.3325
rfemur 8.24442 -0.116002 2.95784
rtibia 32.7269
rfoot -23.5368 -4.90975
rtoes 4.79231
lfemur 10.12 13.3419 -14.2277
ltibia 76.1985
lfoot 4.98447 -2.51461
ltoes 5.05857
214
root -25.7823 16.7445 -2.434 -16.8134 -20.3472 11.4529
lowerback 10.8511 0.507341 -4.46469
upperback 3.63525 0.381612 7.71985
thorax -2.34116 0.134095 10.7935
lowerneck -18.0579 8.67046 11.7158
upperneck 35.138 11.4349 -6.9066
head 16.9624 5.38689 -2.75173
rclavicle 1.04362e-014 -5.40694e-014
rhumerus -49.4732 -32.5775 -39.0058
rradius 32.7169
rwrist -9.44385
rhand -10.9763 -35.6753
rfingers 7.12502
rthumb 15.0433 -65.1088
lclavicle 1.04362e-014 -5.40694e-014
lhumerus 4.65275 44.0914 14.8667
lradius 45.7513
lwrist 31.3052
lhand -45.7608 -31.743
lfingers 7.12502
lthumb -18.5156 -2.60419
rfemur 7.32773 -0.0231526 2.13582
rtibia 32.6895
rfoot -22.3874 -5.34812
rtoes 3.17083
lfemur 11.713 14.1561 -15.613
ltibia 73.9874
lfoot 3.87057 -2.45927
ltoes 2.80388
215
root -25.6406 16.8176 -2.48015 -16.1176 -19.6475 11.2336
lowerback 10.4957 0.024133 -4.48818
upperback 3.5431 -0.262309 7.62016
thorax -2.10165 -0.197799 10.7697
lowerneck -18.2675 8.71871 11.2738
upperneck 34.6239 11.5653 -6.81571
head 16.7129 5.38498 -2.59269
rclavicle 6.21466e-014 0
rhumerus -52.6129 -34.1069 -35.0973
rradius 32.9346
rwrist -11.4026
rhand -12.6546 -35.989
rfingers 7.12502
rthumb 13.4261 -65.5364
lclavicle 6.21466e-014 0
lhumerus 5.14792 43.5398 15.7996
lradius 43.8206
lwrist 31.8126
lhand -42.8562 -24.0997
lfingers 7.12502
lthumb -15.7199 5.28178
rfemur 6.28548 0.503008 2.144
rtibia 33.053
rfoot -20.8657 -5.9521
rtoes 1.4007
lfemur 13.5107 15.311 -16.0744
ltibia 71.0682
lfoot 2.68324 -3.00834
ltoes -5.24673
216
root -25.5009 16.8864 -2.53786 -15.2424 -19.142 10.6548
lowerback 10.2165 -0.360365 -4.09066
upperback 3.34245 -0.728406 7.46314
thorax -2.06806 -0.424983 10.4019
lowerneck -18.0702 8.79383 11.3493
upperneck 33.8551 11.591 -6.77071
head 16.2794 5.4171 -2.57374
rclavicle -3.28492e-014 -9.22361e-014
rhumerus -55.9974 -35.0997 -31.3025
rradius 32.7239
rwrist -13.8785
rhand -14.5637 -36.4117
rfingers 7.12502
rthumb 11.5856 -66.0714
lclavicle -3.28492e-014 -9.22361e-014
lhumerus 5.98729 42.5963 16.6938
lradius 42.2143
lwrist 32.7408
lhand -39.6797 -17.4024
lfingers 7.12502
lthumb -12.659 12.194
rfemur 4.80016 1.40664 2.78193
rtibia 33.9779
rfoot -19.4368 -6.52089
rtoes 2.17341
lfemur 15.1595 16.5082 -16.0153
ltibia 68.1088
lfoot 1.63633 -3.63317
ltoes -5.70737
217
root -25.3497 16.9521 -2.60624 -14.3119 -18.461 10.7177
lowerback 9.68037 -0.806821 -4.48658
upperback 3.24584 -1.35848 7.28159
thorax -1.73514 -0.753584 10.4875
lowerneck -18.0315 8.98718 11.4059
upperneck 32.9475 11.9097 -7.07223
head 15.8932 5.51802 -2.63181
rclavicle 5.19822e-014 0
rhumerus -58.771 -35.9062 -27.717
rradius 33.2476
rwrist -17.0967
rhand -15.4143 -41.0799
rfingers 7.12502
rthumb 10.7651 -70.784
lclavicle 5.19822e-014 0
lhumerus 6.48061 42.3585 17.5061
lradius 40.8424
lwrist 33.3173
lhand -35.7952 -12.7843
lfingers 7.12502
lthumb -8.91217 17.0075
rfemur 2.71169 2.294 2.53769
rtibia 35.41
rfoot -18.1259 -6.81516
rtoes 6.54647
lfemur 16.3376 17.6542 -16.8568
ltibia 65.022
lfoot 0.652512 -3.89229
ltoes -4.60159
218
root -25.1996 17.0151 -2.68444 -13.5479 -17.7538 11.551
lowerback 9.12924 -1.17939 -5.79919
upperback 3.19915 -1.96838 7.00036
thorax -1.30654 -1.08408 10.9985
lowerneck -17.8601 9.17946 11.2872
upperneck 31.7871 12.3003 -7.44412
head 15.3685 5.62795 -2.6761
rclavicle -2.18663e-014 1.17681e-013
rhumerus -60.9099 -36.648 -24.065
rradius 33.156
rwrist -20.1037
rhand -16.3364 -42.8677
rfingers 7.12502
rthumb 9.87564 -72.6161
lclavicle -2.18663e-014 1.17681e-013
lhumerus 6.98189 42.5349 18.5504
lradius 39.4982
lwrist 32.9799
lhand -32.3848 -8.6787
lfingers 7.12502
lthumb -5.62024 21.2268
rfemur 0.224378 3.17915 1.32708
rtibia 37.1715
rfoot -16.4271 -7.23185
rtoes 9.27676
lfemur 17.3657 18.9331 -18.5121
ltibia 61.1917
lfoot -0.0405488 -3.13259
ltoes -5.45976
219
root -25.0612 17.0659 -2.77451 -12.6467 -17.2448 12.037
lowerback 8.6388 -1.52793 -6.9679
upperback 3.17369 -2.52011 6.81961
thorax -0.88195 -1.39174 11.5228
lowerneck -17.7179 9.30251 11.278
upperneck 30.8257 12.6435 -8.06848
head 14.9881 5.69962 -2.85489
rclavicle 7.63333e-014 -3.18055e-014
rhumerus -62.9635 -37.0245 -20.8306
rradius 33.5021
rwrist -23.3387
rhand -17.3582 -45.1724
rfingers 7.12502
rthumb 8.88965 -74.9651
lclavicle 7.63333e-014 -3.18055e-014
lhumerus 7.31292 42.1347 19.2831
lradius 38.5704
lwrist 33.0377
lhand -30.3795 -6.65746
lfingers 7.12502
lthumb -3.68392 23.2904
rfemur -2.58081 4.32799 0.646338
rtibia 39.2902
rfoot -14.5799 -7.89632
rtoes 10.8853
lfemur 17.7735 20.198 -19.7897
ltibia 58.0663
lfoot -1.23796 -1.68001
ltoes -5.14077
220
root -24.9246 17.1032 -2.87434 -11.6424 -16.7828 12.0833
lowerback 8.38837 -1.87891 -7.60799
upperback 3.13062 -3.03246 6.61872
thorax -0.633667 -1.66714 11.7052
lowerneck -18.0022 9.65395 11.3385
upperneck 30.2152 13.1408 -8.29179
head 14.863 5.88248 -2.83101
rclavicle -2.74323e-014 4.45278e-014
rhumerus -65.1424 -37.1042 -18.0047
rradius 34.0852
rwrist -26.7183
rhand -18.7168 -47.2062
rfingers 7.12502
rthumb 7.57852 -77.0504
lclavicle -2.74323e-014 4.45278e-014
lhumerus 7.53241 40.7351 19.5657
lradius 38.2777
lwrist 33.715
lhand -29.4712 -4.43289
lfingers 7.12502
lthumb -2.8068 25.5284
rfemur -5.53805 5.65142 0.516447
rtibia 41.9187
rfoot -12.9527 -8.60629
rtoes 12.5443
lfemur 18.212 21.2937 -20.5536
ltibia 54.7594
lfoot -2.3385 0.503946
ltoes -2.14156
221
root -24.7891 17.1259 -2.98734 -10.879 -16.1827 12.7344
lowerback 8.44987 -2.14184 -8.94643
upperback 3.07163 -3.49905 6.23559
thorax -0.543248 -1.91448 12.1145
lowerneck -18.5424 10.0433 11.1575
upperneck 29.9446 13.6322 -8.10594
head 14.8876 6.07653 -2.594
rclavicle 8.34896e-015 -1.27222e-014
rhumerus -67.2116 -36.9284 -15.3435
rradius 34.6364
rwrist -29.9916
rhand -20.0669 -48.9128
rfingers 7.12502
rthumb 6.27524 -78.7999
lclavicle 8.34896e-015 -1.27222e-014
lhumerus 8.77493 40.6219 21.1075
lradius 37.9454
lwrist 32.7287
lhand -28.818 -4.03429
lfingers 7.12502
lthumb -2.17593 25.9344
rfemur -8.64151 6.67248 -0.424474
rtibia 45.0102
rfoot -11.2623 -9.03772
rtoes 13.2036
lfemur 18.6181 22.4013 -21.8369
ltibia 51.2816
lfoot -3.22383 3.31106
ltoes -0.14548
222
root -24.6532 17.1394 -3.09952 -9.84359 -15.5867 12.9213
lowerback 8.34632 -2.49874 -9.90608
upperback 3.03572 -4.04969 6.00648
thorax -0.313944 -2.21446 12.457
lowerneck -18.4451 10.3691 11.5743
upperneck 29.2948 14.1054 -8.63499
head 14.7267 6.26448 -2.77068
rclavicle 3.29983e-014 -3.18055e-015
rhumerus -68.9364 -36.6683 -12.8029
rradius 35.0058
rwrist -32.8306
rhand -21.1025 -50.0299
rfingers 7.12502
rthumb 5.27535 -79.9442
lclavicle 3.29983e-014 -3.18055e-015
lhumerus 9.62915 39.6632 21.9274
lradius 37.877
lwrist 32.4614
lhand -29.0076 -4.24734
lfingers 7.12502
lthumb -2.35908 25.7194
rfemur -11.8905 7.17758 -0.995268
rtibia 48.2837
rfoot -9.93508 -8.67009
rtoes 14.5326
lfemur 18.7447 23.269 -22.782
ltibia 47.7683
lfoot -4.32002 6.62037
ltoes 0.189542
223
root -24.5152 17.1306 -3.2185 -9.41196 -14.7488 14.4848
lowerback 8.47902 -2.54822 -11.9495
upperback 3.00144 -4.30299 4.90366
thorax -0.273981 -2.34729 12.4484
lowerneck -18.3481 10.5484 13.199
upperneck 28.7905 14.0947 -9.53518
head 14.7266 6.32558 -3.39613
rclavicle 4.8901e-014 -5.40694e-014
rhumerus -71.8726 -36.009 -10.5264
rradius 35.5378
rwrist -35.5947
rhand -21.8248 -50.8186
rfingers 7.12502
rthumb 4.57791 -80.7492
lclavicle 4.8901e-014 -5.40694e-014
lhumerus 11.4238 36.8599 22.117
lradius 37.9287
lwrist 33.1939
lhand -30.3752 -4.44677
lfingers 7.12502
lthumb -3.67982 25.5012
rfemur -14.8681 7.37877 -3.26609
rtibia 51.646
rfoot -9.66463 -7.61667
rtoes 15.6594
lfemur 19.01 23.9179 -25.3489
ltibia 44.0941
lfoot -5.94564 9.8928
ltoes 6.29456
